PathFileType	4	(X/Y/Z)	C:/Users/opensim2020/Desktop/walking_exp_matlab/subject03_walking05_straight_04.trc																																																																																																																																					
DataRate	CameraRate	NumFrames	NumMarkers	Units	OrigDataRate	OrigDataStartFrame	OrigNumFrames																																																																																																																																	
100	100	4	45	mm	100	3112	294																																																																																																																																	
Frame#	Time	LFHD			RFHD			LBHD			RBHD			C7			T10			CLAV			STRN			RBAK			LSHO			LUPA			LELB			LFRM			LWRA			LWRB			LFIN			RSHO			RUPA			RELB			RFRM			RWRA			RWRB			RFIN			LASI			RASI			LPSI			RPSI			LTHI			LKNE			LTIB			LANK			LHEE			LTOE			RTHI			RKNE			RTIB			RANK			RHEE			RTOE			*39			*40			*41			*42			*43			*44		
		X1	Y1	Z1	X2	Y2	Z2	X3	Y3	Z3	X4	Y4	Z4	X5	Y5	Z5	X6	Y6	Z6	X7	Y7	Z7	X8	Y8	Z8	X9	Y9	Z9	X10	Y10	Z10	X11	Y11	Z11	X12	Y12	Z12	X13	Y13	Z13	X14	Y14	Z14	X15	Y15	Z15	X16	Y16	Z16	X17	Y17	Z17	X18	Y18	Z18	X19	Y19	Z19	X20	Y20	Z20	X21	Y21	Z21	X22	Y22	Z22	X23	Y23	Z23	X24	Y24	Z24	X25	Y25	Z25	X26	Y26	Z26	X27	Y27	Z27	X28	Y28	Z28	X29	Y29	Z29	X30	Y30	Z30	X31	Y31	Z31	X32	Y32	Z32	X33	Y33	Z33	X34	Y34	Z34	X35	Y35	Z35	X36	Y36	Z36	X37	Y37	Z37	X38	Y38	Z38	X39	Y39	Z39	X40	Y40	Z40	X41	Y41	Z41	X42	Y42	Z42	X43	Y43	Z43	X44	Y44	Z44	X45	Y45	Z45
																																																																																																																																								
258	2.57	905.51123	1611.86768	-1512.90454	887.81732	1618.96533	-1380.81018	772.08496	1590.92419	-1526.28857	759.19025	1596.70593	-1396.12634	717.88965	1424.07312	-1467.48413	691.51117	1105.76343	-1463.87317	838.711	1347.72827	-1459.71741	887.06976	1185.1416	-1462.53259	662.36725	1244.56042	-1371.04211	799.95337	1382.62585	-1617.57446	814.41681	1186.42444	-1688.7218	839.61493	1065.24036	-1697.16467	883.1308	942.71027	-1687.84912	910.20435	828.79297	-1651.48389	900.43854	831.3399	-1706.38623	929.86841	754.26526	-1692.60437	785.85748	1371.23132	-1302.40515	799.53058	1147.41724	-1234.00171	826.42615	1036.98145	-1225.32935	859.0827	904.06445	-1229.6449	898.94482	814.91443	-1271.51086	871.20068	804.2912	-1225.8678	900.41522	736.43213	-1241.34082	867.59363	951.42371	-1578.05103	860.2442	944.96002	-1339.7948	704.22754	972.34729	-1531.30371	699.83899	969.53937	-1382.15063	813.53156	649.09094	-1615.97876	816.3045	471.61578	-1574.7688	764.8457	282.37061	-1577.4906	746.78851	73.21719	-1535.08716	707.40674	38.77279	-1498.83276	901.07465	35.48277	-1515.14954	852.44757	643.73535	-1299.24573	914.69263	474.83401	-1323.37537	787.58423	333.95651	-1325.32666	642.83813	176.5551	-1371.23889	589.29468	175.724	-1425.32056	727.23724	64.06217	-1382.64502	829.38556	1689.33911	-1473.92578	NaN	NaN	NaN	NaN	NaN	NaN	NaN	NaN	NaN	NaN	NaN	NaN	NaN	NaN	NaN
259	2.58	915.14044	1611.37549	-1511.97644	897.17657	1618.09851	-1379.88489	781.63214	1591.14441	-1525.75635	768.32343	1596.58569	-1395.7168	726.52283	1423.8783	-1467.36426	700.3266	1105.51501	-1463.7196	847.30328	1347.54871	-1459.82727	895.70886	1185.04175	-1462.90283	670.70612	1244.50806	-1371.12842	808.21661	1382.82715	-1617.49158	824.51202	1187.25623	-1689.25891	852.24872	1066.69849	-1698.00171	899.1662	945.45642	-1688.45483	929.65558	832.63568	-1651.82788	919.49622	834.65363	-1706.60046	951.97656	759.05719	-1693.12268	794.36102	1371.14258	-1302.44421	806.29443	1147.03052	-1233.86133	832.34344	1036.42908	-1224.90784	863.89319	903.22791	-1229.10352	903.72028	813.89423	-1270.84302	875.50433	803.47675	-1225.44409	904.39331	735.66644	-1240.51099	874.065	949.98621	-1578.68555	869.6499	944.83002	-1340.22217	712.95996	972.00146	-1530.98193	709.08777	969.23749	-1382.02881	819.59296	648.82025	-1616.14172	820.7981	471.27728	-1575.13635	767.34766	282.50845	-1577.50684	748.44025	72.48635	-1534.18799	707.53052	39.32889	-1498.66626	901.15204	35.44174	-1515.21204	864.8526	645.07483	-1300.34888	930.89246	476.8049	-1324.60657	808.34406	331.43741	-1326.65515	669.37054	168.80272	-1372.59668	615.38916	165.4348	-1426.85339	759.03711	60.94112	-1384.23328	839.29248	1688.51184	-1472.72498	NaN	NaN	NaN	NaN	NaN	NaN	NaN	NaN	NaN	NaN	NaN	NaN	NaN	NaN	NaN
260	2.59	924.71167	1610.8208	-1511.05286	906.71869	1617.104	-1378.97534	791.11401	1591.26917	-1525.24622	777.5307	1596.20129	-1395.13538	735.35632	1423.64941	-1467.1377	709.05286	1105.12805	-1463.60864	855.92267	1347.18457	-1459.86963	904.36536	1184.81335	-1463.25403	679.32172	1244.05383	-1371.12695	816.46088	1382.82874	-1617.30713	834.52905	1187.89063	-1689.77112	864.59998	1068.00745	-1698.87524	914.97559	948.23157	-1689.15271	949.10156	836.59131	-1652.13123	938.4007	838.11676	-1706.79297	973.65649	763.93872	-1693.55811	803.10229	1370.49316	-1302.40625	813.49359	1146.64758	-1233.63513	838.35822	1035.88525	-1224.42554	869.17041	902.42065	-1228.61145	908.24835	812.73181	-1270.08374	879.76184	802.53479	-1224.84363	908.79761	734.85168	-1239.31042	884.04474	950.33563	-1579.15027	878.95477	944.59473	-1340.63257	720.98859	972.00793	-1531.10278	718.11548	968.76398	-1381.90417	825.75262	648.50995	-1615.89697	825.22614	470.91455	-1575.49988	769.85431	282.6546	-1577.53235	748.65601	72.79674	-1534.08667	707.64594	39.75664	-1498.46753	901.19116	35.43351	-1515.29199	878.43439	645.53473	-1300.48462	946.48749	478.39136	-1325.89709	828.62616	328.64236	-1327.79883	696.57141	160.47781	-1374.09705	642.45557	154.47725	-1428.45996	791.92426	57.97523	-1385.74634	849.81537	1688.79053	-1471.75818	NaN	NaN	NaN	NaN	NaN	NaN	NaN	NaN	NaN	NaN	NaN	NaN	NaN	NaN	NaN
261	2.6	934.26398	1610.1532	-1510.08582	916.05945	1616.07104	-1378.01489	800.71161	1591.24951	-1524.61609	786.69897	1595.70117	-1394.62085	743.86871	1423.32544	-1467.03503	717.24152	1105.06592	-1463.90771	864.44385	1346.71289	-1459.85742	913.01587	1184.41199	-1463.55554	687.97095	1243.44116	-1371.11487	824.73517	1382.69348	-1617.09509	844.67511	1188.44995	-1690.31189	876.77203	1069.18542	-1699.84497	930.65369	950.97278	-1689.8811	969.6972	841.33087	-1652.33105	957.07019	841.55579	-1706.88818	994.91168	768.7818	-1693.87866	811.49176	1370.06909	-1302.32727	820.67194	1146.01001	-1233.31311	844.48248	1035.08582	-1223.92969	874.40143	901.47052	-1227.95923	913.5423	811.74432	-1268.98657	884.35364	801.55066	-1224.18298	913.29559	733.91479	-1237.8761	892.47858	949.82306	-1579.6521	888.90955	944.69653	-1341.1676	729.73206	971.2074	-1530.72937	727.24817	968.18329	-1381.74475	831.53662	648.01672	-1616.45081	829.69434	470.51727	-1575.88098	772.50616	282.78387	-1577.49475	748.15387	73.74147	-1534.68054	707.70331	40.22097	-1498.23596	901.33038	35.45327	-1515.36499	891.57257	646.18158	-1300.2605	961.63892	480.16483	-1326.828	849.29944	325.57361	-1328.97461	724.59912	151.91083	-1375.75818	671.1322	142.87871	-1430.20288	825.37506	55.17531	-1387.20044	859.64563	1688.13611	-1470.80029	NaN	NaN	NaN	NaN	NaN	NaN	NaN	NaN	NaN	NaN	NaN	NaN	NaN	NaN	NaN
